<svg width="13" height="14" viewBox="0 0 13 14" fill="none" xmlns="http://www.w3.org/2000/svg">
<path id="icon" fill-rule="evenodd" clip-rule="evenodd" d="M2.88889 0.5C1.2934 0.5 0 1.7934 0 3.38889V10.6111C0 12.2066 1.2934 13.5 2.88889 13.5H10.1111C11.7066 13.5 13 12.2066 13 10.6111V3.38889C13 1.7934 11.7066 0.5 10.1111 0.5H2.88889ZM1.44444 3.38889C1.44444 2.59114 2.09114 1.94444 2.88889 1.94444H10.1111C10.9089 1.94444 11.5556 2.59114 11.5556 3.38889V10.6111C11.5556 11.4089 10.9089 12.0556 10.1111 12.0556H2.88889C2.09114 12.0556 1.44444 11.4089 1.44444 10.6111V3.38889Z" fill="#AD6F07"/>
</svg>
